<svg xmlns="http://www.w3.org/2000/svg" viewBox="0 0 1200 520" role="img" aria-labelledby="title desc">
  <title id="title">Arcade terminal portfolio gate</title>
  <desc id="desc">Animated arcade terminal panel inviting the user to click and enter the portfolio.</desc>
  <defs>
    <linearGradient id="frame" x1="0%" y1="0%" x2="100%" y2="100%">
      <stop offset="0%" stop-color="#0ef71f"/>
      <stop offset="100%" stop-color="#ff8a00"/>
    </linearGradient>
    <linearGradient id="screenGlow" x1="0%" y1="0%" x2="100%" y2="100%">
      <stop offset="0%" stop-color="#08110d"/>
      <stop offset="100%" stop-color="#0d1712"/>
    </linearGradient>
    <filter id="softGlow" x="-20%" y="-20%" width="140%" height="140%">
      <feGaussianBlur stdDeviation="6" result="blur"/>
      <feMerge>
        <feMergeNode in="blur"/>
        <feMergeNode in="SourceGraphic"/>
      </feMerge>
    </filter>
    <filter id="orangeGlow" x="-20%" y="-20%" width="140%" height="140%">
      <feGaussianBlur stdDeviation="4" result="blur"/>
      <feColorMatrix in="blur" type="matrix" values="1 0 0 0 0  0 0.5 0 0 0  0 0 0 0 0  0 0 0 1 0"/>
      <feMerge>
        <feMergeNode/>
        <feMergeNode in="SourceGraphic"/>
      </feMerge>
    </filter>
  </defs>

  <rect width="1200" height="520" rx="28" fill="#0a0f14"/>
  <rect x="22" y="22" width="1156" height="476" rx="24" fill="none" stroke="url(#frame)" stroke-width="4"/>
  <rect x="50" y="50" width="1100" height="420" rx="18" fill="url(#screenGlow)" stroke="#1d3023" stroke-width="2"/>

  <g opacity="0.18">
    <path d="M60 84h1080M60 132h1080M60 180h1080M60 228h1080M60 276h1080M60 324h1080M60 372h1080M60 420h1080" stroke="#8fff99" stroke-width="1"/>
  </g>

  <g font-family="monospace" fill="#d6ffe0">
    <text x="88" y="104" font-size="24" fill="#0ef71f">MAXSM://ARCADE_TERMINAL</text>
    <text x="930" y="104" font-size="22" fill="#ff8a00">CREDITS 01</text>

    <text x="92" y="168" font-size="30" fill="#9fb8a4">&gt; STATUS</text>
    <text x="92" y="212" font-size="44" fill="#ffffff">PRESS START</text>
    <rect x="458" y="181" width="18" height="36" fill="#0ef71f">
      <animate attributeName="opacity" values="1;0;1" dur="1.1s" repeatCount="indefinite"/>
    </rect>

    <text x="92" y="280" font-size="28" fill="#8ce89c">LEVEL: FULL STACK</text>
    <text x="92" y="324" font-size="28" fill="#8ce89c">MISSION: ENTER PORTFOLIO</text>
    <text x="92" y="368" font-size="28" fill="#8ce89c">MODE: CREATIVE BUILD</text>

    <text x="738" y="168" font-size="28" fill="#9fb8a4">PLAYER</text>
    <text x="738" y="212" font-size="48" fill="#ffffff">MAXSM</text>
    <text x="738" y="280" font-size="28" fill="#9fb8a4">XP</text>
    <text x="840" y="280" font-size="30" fill="#ff8a00">9999</text>
    <text x="738" y="324" font-size="28" fill="#9fb8a4">HEALTH</text>
    <rect x="880" y="302" width="200" height="24" rx="12" fill="#19231b" stroke="#294330"/>
    <rect x="884" y="306" width="148" height="16" rx="8" fill="#0ef71f" filter="url(#softGlow)">
      <animate attributeName="width" values="148;170;148" dur="2.4s" repeatCount="indefinite"/>
    </rect>

    <g filter="url(#orangeGlow)">
      <rect x="92" y="402" width="1016" height="44" rx="22" fill="none" stroke="#ff8a00" stroke-width="3"/>
      <text x="600" y="431" font-size="26" text-anchor="middle" fill="#ffb24a">CLICK TO ENTER WWW.MAXSM.DEV</text>
    </g>
  </g>
</svg>
